<?xml version="1.0" encoding="UTF-8"?>
<svg width="100pt" height="100pt" version="1.1" viewBox="0 0 100 100" xmlns="http://www.w3.org/2000/svg">
 <path d="m8 21c-1.1055 0-2 0.89453-2 2v54c0 1.1016 0.89453 2 2 2h84c1.1055 0 2-0.89844 2-2v-54c0-1.1055-0.89453-2-2-2zm4.6016 4h74.508l-17.289 14.707h0.003907c-0.003907 0.003907-0.011719 0.007813-0.015625 0.011719l-19.688 17.094-19.691-17.094c-0.011719-0.011719-0.023438-0.019531-0.035157-0.03125zm77.398 2.793v47.207h-80v-46.961l17.836 14.727 20.973 18.203c0.75391 0.65625 1.8711 0.65625 2.6211 0l20.984-18.219 0.011719-0.011719z" fill-rule="evenodd"/>
</svg>
